2.8Hzhigh3min_grf.mot
version=1
nRows=27
nColumns 19
inDegrees=yes
endheader
time	1_ground_force_vx	1_ground_force_vy	1_ground_force_vz	1_ground_force_px	1_ground_force_py	1_ground_force_pz	1_ground_torque_x	1_ground_torque_y	1_ground_torque_z	2_ground_force_vx	2_ground_force_vy	2_ground_force_vz	2_ground_force_px	2_ground_force_py	2_ground_force_pz	2_ground_torque_x	2_ground_torque_y	2_ground_torque_z
            1.253500	            0.320399	            6.488447	            0.302166	           -0.233013	            0.005581	           -0.255695	            0.435346	           -0.176511	            0.274788	           -0.245994	            2.954565	           -2.523505	           -0.232311	            0.006130	           -0.833667	           -0.487928	           -0.180087	           -0.358587
            1.254000	            0.412655	            6.487481	            0.531218	           -0.233013	            0.005581	           -0.255695	            0.444350	           -0.167215	            0.278715	            0.077927	            4.060974	           -2.613558	           -0.232311	            0.006130	           -0.833667	           -0.393907	           -0.208039	           -0.377578
            1.254500	            0.137708	            7.748698	            0.674879	           -0.233013	            0.005581	           -0.255695	            0.550150	           -0.241022	            0.209968	           -0.105444	            2.955073	           -2.523565	           -0.232311	            0.006130	           -0.833667	           -0.581873	           -0.161925	           -0.245378
            1.255000	            0.458773	            6.847432	            0.670218	           -0.233013	            0.005581	           -0.255695	            0.419499	           -0.241141	            0.280402	            0.038470	            2.034504	           -2.433054	           -0.232311	            0.006130	           -0.833667	           -0.525568	           -0.152134	           -0.283069
            1.255500	            0.366566	            7.208732	            0.488567	           -0.233013	            0.005581	           -0.255695	            0.445707	           -0.222456	            0.220100	            0.223190	            2.771941	           -2.477433	           -0.232311	            0.006130	           -0.833667	           -0.600590	           -0.180898	           -0.245438
            1.256000	            0.457554	            6.669329	            0.165030	           -0.233013	            0.005581	           -0.255695	            0.422439	           -0.213590	            0.318115	            0.271349	            2.403981	           -2.525695	           -0.232311	            0.006130	           -0.833667	           -0.675664	           -0.200074	           -0.245473
            1.256500	            0.366617	            6.307600	            0.438847	           -0.233013	            0.005581	           -0.255695	            0.335504	           -0.157614	            0.183088	            0.224458	            2.404147	           -2.619532	           -0.232311	            0.006130	           -0.833667	           -0.487826	           -0.208446	           -0.358688
            1.257000	            0.595682	            7.749573	            0.490317	           -0.233013	            0.005581	           -0.255695	            0.426277	           -0.175573	            0.098517	            0.083305	            2.587285	           -2.478030	           -0.232311	            0.006130	           -0.833667	           -0.600768	           -0.142751	           -0.339554
            1.257500	            0.412442	            7.028475	            0.487681	           -0.233013	            0.005581	           -0.255695	            0.427148	           -0.213357	            0.259743	           -0.013738	            3.507856	           -2.521633	           -0.232311	            0.006130	           -0.833667	           -0.525662	           -0.123843	           -0.264118
            1.258000	            0.367135	            7.207749	            0.717847	           -0.233013	            0.005581	           -0.255695	            0.510838	           -0.249843	            0.144629	            0.271390	            2.403646	           -2.431839	           -0.232311	            0.006130	           -0.833667	           -0.506910	           -0.123506	           -0.339526
            1.258500	            0.321310	            6.486874	            0.669013	           -0.233013	            0.005581	           -0.255695	            0.344621	           -0.204245	            0.274894	            0.127558	            3.323546	           -2.334638	           -0.232311	            0.006130	           -0.833667	           -0.581797	           -0.180897	           -0.226596
            1.259000	            0.229444	            6.847584	            0.624931	           -0.233013	            0.005581	           -0.255695	            0.421292	           -0.250250	            0.214190	            0.132190	            2.034675	           -2.386165	           -0.232311	            0.006130	           -0.833667	           -0.525500	           -0.171039	           -0.283136
            1.259500	            0.458186	            7.569281	            0.489886	           -0.233013	            0.005581	           -0.255695	            0.445344	           -0.212929	            0.167644	            0.316267	            2.956093	           -2.382960	           -0.232311	            0.006130	           -0.833667	           -0.638227	           -0.180496	           -0.396224
            1.260000	            0.366650	            6.127334	            0.438074	           -0.233013	            0.005581	           -0.255695	            0.448256	           -0.176079	            0.182735	           -0.058594	            2.955242	           -2.523585	           -0.232311	            0.006130	           -0.833667	           -0.525483	           -0.171174	           -0.245436
            1.260500	            0.504517	            7.388238	            0.672423	           -0.233013	            0.005581	           -0.255695	            0.475464	           -0.194892	            0.282397	            0.083326	            2.587118	           -2.431102	           -0.232311	            0.006130	           -0.833667	           -0.544465	           -0.114593	           -0.226376
            1.261000	            0.504583	            7.027706	            0.670877	           -0.233013	            0.005581	           -0.255695	            0.456874	           -0.176328	            0.263737	            0.175573	            2.956757	           -2.711397	           -0.232311	            0.006130	           -0.833667	           -0.581949	           -0.152136	           -0.339596
            1.261500	            0.275257	            5.766392	            0.528467	           -0.233013	            0.005581	           -0.255695	            0.425809	           -0.250070	            0.178577	            0.035708	            2.771934	           -2.665066	           -0.232311	            0.006130	           -0.833667	           -0.544302	           -0.170973	           -0.320829
            1.262000	            0.183748	            6.667113	            0.670127	           -0.233013	            0.005581	           -0.255695	            0.382132	           -0.222949	            0.306447	            0.082435	            2.773107	           -2.946654	           -0.232311	            0.006130	           -0.833667	           -0.544277	           -0.171174	           -0.264278
            1.262500	            0.366877	            6.126941	            0.529786	           -0.233013	            0.005581	           -0.255695	            0.388136	           -0.250196	            0.220163	            0.033091	            3.508193	           -2.568581	           -0.232311	            0.006130	           -0.833667	           -0.563128	           -0.170704	           -0.415072
            1.263000	            0.229381	            5.946649	            0.529354	           -0.233013	            0.005581	           -0.255695	            0.388319	           -0.185717	            0.252177	            0.175758	            2.955251	           -2.289044	           -0.232311	            0.006130	           -0.833667	           -0.562993	           -0.199331	           -0.339772
            1.263500	            0.412394	            6.668140	            0.440279	           -0.233013	            0.005581	           -0.255695	            0.391829	           -0.167229	            0.278839	            0.080708	            3.323377	           -2.334618	           -0.232311	            0.006130	           -0.833667	           -0.581710	           -0.218305	           -0.339832
            1.264000	            0.366632	            6.848200	            0.487021	           -0.233013	            0.005581	           -0.255695	            0.483605	           -0.121013	            0.276848	            0.225849	            2.035348	           -2.480061	           -0.232311	            0.006130	           -0.833667	           -0.657030	           -0.171245	           -0.358481
            1.264500	            0.228842	            7.028833	            0.396424	           -0.233013	            0.005581	           -0.255695	            0.487397	           -0.185783	            0.270690	            0.316890	            2.772280	           -2.477473	           -0.232311	            0.006130	           -0.833667	           -0.544387	           -0.142749	           -0.283027
            1.265000	            0.183814	            6.306582	            0.668581	           -0.233013	            0.005581	           -0.255695	            0.438543	           -0.241183	            0.249847	            0.038470	            2.034504	           -2.433054	           -0.232311	            0.006130	           -0.833667	           -0.600769	           -0.133567	           -0.264119
            1.265500	            0.458890	            5.585769	            0.618951	           -0.233013	            0.005581	           -0.255695	            0.422025	           -0.203766	            0.186610	            0.130073	            2.588124	           -2.665763	           -0.232311	            0.006130	           -0.833667	           -0.487767	           -0.218100	           -0.302171
            1.266000	            0.412816	            6.847619	            0.624475	           -0.233013	            0.005581	           -0.255695	            0.439975	           -0.166810	            0.184724	            0.081894	            2.956252	           -2.664429	           -0.232311	            0.006130	           -0.833667	           -0.525414	           -0.199263	           -0.320938
            1.266500	            0.412816	            6.847619	            0.624475	           -0.233013	            0.005581	           -0.255695	            0.439978	           -0.185297	            0.184645	            0.178978	            2.035346	           -2.526970	           -0.232311	            0.006130	           -0.833667	           -0.487843	           -0.199127	           -0.320954
